<svg width="192" height="192" viewBox="0 0 192 192" fill="none" xmlns="http://www.w3.org/2000/svg">
<rect width="192" height="192" rx="24" fill="#6366f1"/>
<svg x="48" y="48" width="96" height="96" viewBox="0 0 24 24" fill="none" xmlns="http://www.w3.org/2000/svg">
<path d="M12 2C6.48 2 2 6.48 2 12S6.48 22 12 22S22 17.52 22 12S17.52 2 12 2ZM12 20C7.59 20 4 16.41 4 12S7.59 4 12 4S20 7.59 20 12S16.41 20 12 20Z" fill="white"/>
<path d="M12 6C8.69 6 6 8.69 6 12S8.69 18 12 18S18 15.31 18 12S15.31 6 12 6ZM12 16C9.79 16 8 14.21 8 12S9.79 8 12 8S16 9.79 16 12S14.21 16 12 16Z" fill="white"/>
</svg>
</svg>
